<svg width="150" height="150" viewBox="0 0 150 150" fill="none" xmlns="http://www.w3.org/2000/svg">
<path d="M47.6651 30.8889C50.8651 30.8889 53.6947 31.5407 56.154 32.8444C58.6429 34.1185 60.5688 35.9259 61.9318 38.2667C63.2947 40.6074 63.9762 43.3333 63.9762 46.4444C63.9762 49.5556 63.2947 52.2815 61.9318 54.6222C60.5688 56.963 58.6429 58.7852 56.154 60.0889C53.6947 61.363 50.8651 62 47.6651 62H34.2429V30.8889H47.6651ZM47.3095 56.0889C50.2725 56.0889 52.6281 55.2296 54.3762 53.5111C56.154 51.763 57.0429 49.4074 57.0429 46.4444C57.0429 43.4815 56.154 41.1407 54.3762 39.4222C52.6281 37.6741 50.2725 36.8 47.3095 36.8H41.0873V56.0889H47.3095ZM89.7976 50.1333C89.7976 50.2222 89.7531 50.8444 89.6642 52H72.5087C72.8346 53.4815 73.5605 54.6519 74.6865 55.5111C75.842 56.3704 77.2791 56.8 78.9976 56.8C80.1828 56.8 81.2198 56.6222 82.1087 56.2667C83.0272 55.8815 83.8865 55.2889 84.6865 54.4889L88.1976 58.4889C86.0346 61.0667 82.9087 62.3556 78.8198 62.3556C76.242 62.3556 73.9605 61.837 71.9753 60.8C70.0198 59.7333 68.5087 58.2667 67.442 56.4C66.3753 54.5333 65.842 52.4148 65.842 50.0444C65.842 47.7037 66.3605 45.6 67.3976 43.7333C68.4642 41.837 69.9161 40.3704 71.7531 39.3333C73.6198 38.2667 75.6939 37.7333 77.9753 37.7333C80.1976 37.7333 82.1976 38.237 83.9753 39.2444C85.7828 40.2519 87.205 41.7037 88.242 43.6C89.2791 45.4667 89.7976 47.6444 89.7976 50.1333ZM78.0198 42.9778C76.5383 42.9778 75.2791 43.4222 74.242 44.3111C73.2346 45.2 72.6272 46.4148 72.4198 47.9556H83.5753C83.3383 46.4444 82.7161 45.2444 81.7087 44.3556C80.7309 43.437 79.5013 42.9778 78.0198 42.9778ZM102.473 37.7333C105.999 37.7333 108.695 38.6222 110.562 40.4C112.458 42.1481 113.406 44.8 113.406 48.3556V62H107.229V59.0222C105.955 61.2444 103.643 62.3556 100.295 62.3556C98.5472 62.3556 97.0361 62.0444 95.762 61.4222C94.4879 60.8 93.5101 59.9407 92.8286 58.8444C92.1472 57.7481 91.8064 56.5037 91.8064 55.1111C91.8064 52.8889 92.6064 51.1407 94.2064 49.8667C95.8064 48.5926 98.2657 47.9556 101.584 47.9556H106.784C106.784 46.8889 106.606 46.0593 106.251 45.4667C105.451 43.9852 103.895 43.2444 101.584 43.2444C100.369 43.2444 99.1694 43.4519 97.9842 43.8667C96.8286 44.2519 95.8361 44.7852 95.0064 45.4667L92.6509 40.6222C93.8657 39.7037 95.3472 38.9926 97.0953 38.4889C98.8435 37.9852 100.636 37.7333 102.473 37.7333ZM101.94 57.6889C103.095 57.6889 104.103 57.4222 104.962 56.8889C105.821 56.3259 106.429 55.5111 106.784 54.4444V52H102.295C99.599 52 98.2509 52.9333 98.2509 54.8C98.2509 55.6889 98.5768 56.4 99.2286 56.9333C99.8805 57.437 100.784 57.6889 101.94 57.6889ZM124.74 41.2444C125.54 40.0889 126.607 39.2148 127.94 38.6222C129.274 38.0296 130.815 37.7333 132.563 37.7333V44.1333C131.792 44.0741 131.289 44.0444 131.052 44.0444C129.185 44.0444 127.718 44.6074 126.652 45.7333C125.585 46.8296 125.052 48.4889 125.052 50.7111V62H118.429V38.0889H124.74V41.2444ZM137.182 62.3556C135.967 62.3556 134.945 61.9407 134.115 61.1111C133.285 60.2815 132.87 59.2444 132.87 58C132.87 56.7259 133.285 55.7037 134.115 54.9333C134.945 54.1333 135.967 53.7333 137.182 53.7333C138.396 53.7333 139.419 54.1333 140.248 54.9333C141.078 55.7037 141.493 56.7259 141.493 58C141.493 59.2444 141.078 60.2815 140.248 61.1111C139.419 61.9407 138.396 62.3556 137.182 62.3556ZM16.7375 103.44V114H6.3575V72H16.7375V90.24L32.9975 72H44.5175L28.1975 90.66L45.4175 114H33.2975L21.3575 98.28L16.7375 103.44ZM51.9739 77.58C50.1339 77.58 48.6339 77.04 47.4739 75.96C46.3539 74.88 45.7939 73.52 45.7939 71.88C45.7939 70.24 46.3539 68.88 47.4739 67.8C48.6339 66.68 50.1339 66.12 51.9739 66.12C53.7739 66.12 55.2339 66.64 56.3539 67.68C57.5139 68.72 58.0939 70.04 58.0939 71.64C58.0939 73.4 57.5339 74.84 56.4139 75.96C55.2939 77.04 53.8139 77.58 51.9739 77.58ZM56.9539 81.54V114H46.8739V81.54H56.9539ZM84.0343 112.5C83.1143 113.18 81.9943 113.68 80.6743 114C79.3943 114.36 78.0143 114.54 76.5343 114.54C72.6943 114.54 69.7143 113.52 67.5943 111.48C65.5143 109.4 64.4743 106.36 64.4743 102.36V90.48H59.9143V82.38H64.4743V74.34H74.5543V82.38H81.8143V90.48H74.5543V102.24C74.5543 103.52 74.8543 104.5 75.4543 105.18C76.0543 105.86 76.8943 106.2 77.9743 106.2C79.2943 106.2 80.4343 105.82 81.3943 105.06L84.0343 112.5ZM108.028 112.5C107.108 113.18 105.988 113.68 104.668 114C103.388 114.36 102.008 114.54 100.528 114.54C96.6884 114.54 93.7084 113.52 91.5884 111.48C89.5084 109.4 88.4684 106.36 88.4684 102.36V90.48H83.9084V82.38H88.4684V74.34H98.5484V82.38H105.808V90.48H98.5484V102.24C98.5484 103.52 98.8484 104.5 99.4484 105.18C100.048 105.86 100.888 106.2 101.968 106.2C103.288 106.2 104.428 105.82 105.388 105.06L108.028 112.5ZM130.595 115.56C129.115 119.48 127.295 122.22 125.135 123.78C122.975 125.38 120.335 126.18 117.215 126.18C115.615 126.18 113.995 125.9 112.355 125.34C110.715 124.82 109.415 124.12 108.455 123.24L111.995 115.74C112.635 116.34 113.415 116.8 114.335 117.12C115.295 117.48 116.215 117.66 117.095 117.66C117.815 117.66 118.395 117.6 118.835 117.48C119.275 117.36 119.715 117.06 120.155 116.58C120.595 116.1 121.035 115.34 121.475 114.3L108.155 81.54H118.535L126.515 102.3L134.555 81.54H144.215L130.595 115.56Z" fill="black"/>
</svg>
